<svg xmlns="http://www.w3.org/2000/svg" width="116" height="114" viewBox="0 0 116 114" fill="none"><script xmlns=""/><path d="M104.584 48.8555C76.0722 85.4551 52.1128 81.4582 42.9861 77.8724C40.6834 77.0039 38.5483 75.9134 36.6912 74.6845C30.4619 76.9413 18.988 77.1533 0.897704 62.6204L2.6822 60.4874C14.9826 70.4727 25.9686 74.5933 33.836 72.7031C26.9102 67.1241 23.3798 59.5845 23.9813 53.948C24.441 49.4217 27.3951 46.4313 32.121 45.4755C38.4024 44.302 43.6166 46.8472 45.9597 52.2712C48.7161 58.5304 46.9331 68.4968 39.5562 73.1941C50.563 79.5922 73.8842 83.2809 101.837 47.6517L91.7482 49.2571L91.3684 46.5336L106.71 44.1957L109.048 59.5372L106.323 59.9172L104.584 48.8555ZM43.5401 53.4017C42.4092 50.9815 39.6723 47 32.6959 48.1706C29.1108 48.7702 27.1316 50.9296 26.7866 54.1513C26.2979 59.1774 29.9408 66.1065 36.5912 71.129L37.0342 71.4636C37.6747 71.0769 38.3145 70.6895 39.0385 70.1922C44.6926 65.9336 45.7183 58.3542 43.54 53.4019L43.5401 53.4017Z" fill="white"/></svg>